HIERARCHY
ROOT Hips
{
	OFFSET	0.00	0.00	0.00
	CHANNELS 6 Xposition Yposition Zposition Zrotation Xrotation Yrotation
	JOINT LeftHip
	{
		OFFSET	 3.430000	 0.000000	 0.000000
		CHANNELS 3 Zrotation Xrotation Yrotation
		JOINT LeftKnee
		{
			OFFSET	 0.000000	-18.469999	 0.000000
			CHANNELS 3 Zrotation Xrotation Yrotation
			JOINT LeftAnkle
			{
				OFFSET	 0.000000	-17.950001	 0.000000
				CHANNELS 3 Zrotation Xrotation Yrotation
				End Site 
				{
					OFFSET	 0.000000	-3.119996	 0.000000
				}
			}
		}
	}
	JOINT RightHip
	{
		OFFSET	-3.430000	 0.000000	 0.000000
		CHANNELS 3 Zrotation Xrotation Yrotation
		JOINT RightKnee
		{
			OFFSET	 0.000000	-18.809999	 0.000000
			CHANNELS 3 Zrotation Xrotation Yrotation
			JOINT RightAnkle
			{
				OFFSET	 0.000000	-17.570000	 0.000000
				CHANNELS 3 Zrotation Xrotation Yrotation
				End Site 
				{
					OFFSET	 0.000000	-3.250000	 0.000000
				}
			}
		}
	}
	JOINT Chest
	{
		OFFSET	 0.000000	 4.570000	 0.000000
		CHANNELS 3 Zrotation Xrotation Yrotation
		JOINT LeftCollar
		{
			OFFSET	 1.060000	 15.330000	 1.760000
			CHANNELS 3 Zrotation Xrotation Yrotation
			JOINT LeftShoulder
			{
				OFFSET	 5.810000	 0.000000	 0.000000
				CHANNELS 3 Zrotation Xrotation Yrotation
				JOINT LeftElbow
				{
					OFFSET	 0.000000	-12.080000	 0.000000
					CHANNELS 3 Zrotation Xrotation Yrotation
					JOINT LeftWrist
					{
						OFFSET	 0.000000	-9.820000	 0.000000
						CHANNELS 3 Zrotation Xrotation Yrotation
						End Site 
						{
							OFFSET	 0.000000	-7.369996	 0.000000
						}
					}
				}
			}
		}
		JOINT RightCollar
		{
			OFFSET	-1.060000	 15.330000	 1.760000
			CHANNELS 3 Zrotation Xrotation Yrotation
			JOINT RightShoulder
			{
				OFFSET	-6.060000	 0.000000	 0.000000
				CHANNELS 3 Zrotation Xrotation Yrotation
				JOINT RightElbow
				{
					OFFSET	 0.000000	-11.900000	 0.000000
					CHANNELS 3 Zrotation Xrotation Yrotation
					JOINT RightWrist
					{
						OFFSET	 0.000000	-9.520000	 0.000000
						CHANNELS 3 Zrotation Xrotation Yrotation
						End Site 
						{
							OFFSET	 0.000000	-7.140012	 0.000000
						}
					}
				}
			}
		}
		JOINT Neck
		{
			OFFSET	 0.000000	 17.620001	 0.000000
			CHANNELS 3 Zrotation Xrotation Yrotation
			JOINT Head
			{
				OFFSET	 0.000000	 5.190000	 0.000000
				CHANNELS 3 Zrotation Xrotation Yrotation
				End Site 
				{
					OFFSET	 0.000000	 4.140008	 0.000000
				}
			}
		}
	}
}

MOTION
Frames: 18
Frame Time: 0.033333
9.8177 1.1514 -56.7791 -2.64657 1.17598 -44.1058 23.216 -8.91445 17.2542 -2.82093 28.5371 4.91323 -11.2723 -16.0645 1.16458 -24.6469 -17.1224 -17.696 10.5962 20.8318 -2.95118 11.226 -0.925104 9.905 7.26157 21.1558 -7.99974 0 0 0 4.26953 -15.689 17.1946 -14.5062 -17.5103 -10.2167 57.9719 -28.2302 7.39815 0 0 0 -18.9045 -16.1604 -14.7181 15.4774 -26.2357 21.8562 -50.6703 -29.2843 8.88219 0 0 0 1.40391 5.0104 -25.0422 
9.8089 1.1461 -56.7861 -2.65106 1.21037 -44.101 23.2859 -8.95029 17.3015 -2.81573 28.5617 4.89045 -11.3033 -16.0614 1.13886 -24.596 -17.1716 -17.7315 10.5677 20.87 -2.94197 11.2005 -0.933714 9.92573 7.25708 21.1439 -8.00865 0 0 0 4.17667 -15.7578 17.1803 -14.509 -17.5274 -10.1436 57.613 -28.1948 7.20824 0 0 0 -18.9244 -16.1215 -14.6923 15.4737 -26.2676 21.826 -50.5768 -29.3098 8.90363 0 0 0 1.42453 5.03848 -24.9924 
9.803 1.1426 -56.7908 -2.66006 1.25637 -44.1042 23.3777 -8.99034 17.354 -2.82244 28.6023 4.87832 -11.3371 -16.0645 1.10474 -24.5513 -17.1976 -17.7737 10.5628 20.9059 -2.94128 11.1845 -0.956963 9.9588 7.25276 21.1459 -8.02969 0 0 0 4.07927 -15.8285 17.1614 -14.48 -17.5099 -10.0736 57.299 -28.1508 7.03211 0 0 0 -18.9438 -16.1005 -14.6861 15.4485 -26.2712 21.8043 -50.4689 -29.3667 8.89587 0 0 0 1.43805 5.06567 -24.9049 
9.7863 1.1451 -56.8042 -2.66096 1.3289 -44.1065 23.534 -9.04624 17.4636 -2.84052 28.6564 4.83442 -11.3761 -16.0729 1.05442 -24.4702 -17.2392 -17.8117 10.5685 20.9573 -2.93405 11.1364 -1.01738 9.97839 7.23728 21.1468 -8.0452 0 0 0 4.01651 -15.9244 17.1576 -14.4309 -17.4788 -10.0106 57.063 -28.1303 6.88038 0 0 0 -19.0125 -16.0656 -14.658 15.456 -26.3053 21.7578 -50.3441 -29.4137 8.86951 0 0 0 1.48804 5.06301 -24.8051 
9.7562 1.1426 -56.8243 -2.66798 1.43205 -44.0936 23.7614 -9.14494 17.6061 -2.85345 28.7598 4.78373 -11.4546 -16.0933 0.956486 -24.3534 -17.2912 -17.8997 10.5765 21.0391 -2.91594 11.0581 -1.10154 10.0203 7.21147 21.1448 -8.09061 0 0 0 3.90922 -16.0879 17.1763 -14.3731 -17.4319 -9.88366 56.4786 -28.0931 6.57486 0 0 0 -19.0947 -16.0136 -14.5982 15.4281 -26.3429 21.6883 -50.0904 -29.5144 8.92195 0 0 0 1.56142 5.07882 -24.6483 
9.7185 1.1426 -56.8469 -2.67095 1.5454 -44.062 23.9958 -9.24319 17.7738 -2.85051 28.8434 4.7108 -11.5362 -16.1048 0.846836 -24.223 -17.356 -17.9939 10.5763 21.1296 -2.88555 10.9767 -1.19522 10.0392 7.19632 21.1463 -8.13622 0 0 0 3.81622 -16.2489 17.1814 -14.3013 -17.3908 -9.77575 56.0699 -28.034 6.33207 0 0 0 -19.1997 -15.9522 -14.5656 15.4288 -26.3964 21.639 -49.8586 -29.5692 8.89581 0 0 0 1.63716 5.07267 -24.5026 
9.6808 1.1451 -56.8745 -2.66308 1.67572 -44.0399 24.2477 -9.35213 17.9532 -2.8553 28.9222 4.64006 -11.6076 -16.1038 0.731505 -24.0865 -17.4407 -18.0739 10.5906 21.2173 -2.87546 10.8861 -1.29352 10.0584 7.17789 21.1279 -8.15538 0 0 0 3.75856 -16.3615 17.1889 -14.2471 -17.3645 -9.67414 55.8349 -27.9856 6.18725 0 0 0 -19.3169 -15.9042 -14.5415 15.4052 -26.4386 21.5631 -49.6401 -29.6339 8.91265 0 0 0 1.71886 5.0665 -24.3766 
9.6432 1.1451 -56.8971 -2.66226 1.77999 -44.0229 24.4731 -9.4366 18.1009 -2.85921 29.006 4.59485 -11.6819 -16.1278 0.62073 -23.9515 -17.4863 -18.1253 10.6122 21.2803 -2.87176 10.7989 -1.38387 10.0661 7.16464 21.1129 -8.16829 0 0 0 3.7545 -16.4555 17.2358 -14.1806 -17.342 -9.63319 55.7466 -27.901 6.15768 0 0 0 -19.4337 -15.8714 -14.5098 15.4221 -26.4954 21.4558 -49.4343 -29.7175 9.01817 0 0 0 1.78533 5.07532 -24.2741 
9.603 1.1527 -56.9197 -2.66017 1.89734 -43.9815 24.701 -9.53459 18.2183 -2.85454 29.0691 4.54386 -11.7505 -16.1277 0.527667 -23.844 -17.5099 -18.1857 10.6674 21.3273 -2.87171 10.7144 -1.47335 10.05 7.16966 21.1018 -8.21007 0 0 0 3.76443 -16.5536 17.2957 -14.0965 -17.2894 -9.58133 55.675 -27.8252 6.13027 0 0 0 -19.5738 -15.8418 -14.4997 15.4468 -26.5304 21.3893 -49.2494 -29.7948 9.09813 0 0 0 1.83827 5.07231 -24.1704 
9.5603 1.1602 -56.9398 -2.65133 2.00102 -43.9463 24.8853 -9.61555 18.2592 -2.84559 29.0715 4.48934 -11.7881 -16.1193 0.516715 -23.7212 -17.538 -18.2205 10.7066 21.3497 -2.87902 10.6184 -1.5343 10.03 7.17512 21.0874 -8.22805 0 0 0 3.81701 -16.6281 17.3722 -14.0436 -17.2649 -9.55467 55.6591 -27.7702 6.14628 0 0 0 -19.7178 -15.8215 -14.4859 15.4651 -26.575 21.3121 -49.0866 -29.8369 9.18884 0 0 0 1.89312 5.05974 -24.1067 
9.5251 1.1652 -56.9549 -2.64087 2.0659 -43.9089 24.9692 -9.67683 18.2167 -2.81974 28.9954 4.46566 -11.7964 -16.0547 0.563373 -23.6536 -17.5437 -18.2505 10.7393 21.3441 -2.88653 10.5643 -1.55303 10.0053 7.18706 21.0826 -8.25397 0 0 0 3.87173 -16.6652 17.4435 -14.0081 -17.258 -9.54351 55.6342 -27.7295 6.15845 0 0 0 -19.8117 -15.8241 -14.4891 15.4702 -26.597 21.262 -48.9611 -29.8753 9.30789 0 0 0 1.9146 5.04976 -24.0604 
9.4925 1.1702 -56.9649 -2.62714 2.12531 -43.8949 25.0336 -9.74 18.1332 -2.78953 28.8535 4.42538 -11.76 -15.9633 0.714972 -23.5781 -17.5635 -18.2634 10.7546 21.3232 -2.89214 10.522 -1.54831 9.98338 7.20555 21.0733 -8.2527 0 0 0 3.94819 -16.6955 17.4835 -13.9771 -17.2358 -9.55976 55.5472 -27.7417 6.09557 0 0 0 -19.8997 -15.8373 -14.502 15.4967 -26.6198 21.2099 -48.8821 -29.9068 9.37 0 0 0 1.91813 5.04455 -24.0275 
9.4674 1.1753 -56.9674 -2.6109 2.17894 -43.9052 25.0689 -9.79798 18.0248 -2.77753 28.7317 4.39111 -11.6873 -15.9087 0.905275 -23.5136 -17.5711 -18.2647 10.7526 21.296 -2.89278 10.5079 -1.54312 9.97656 7.22229 21.0738 -8.25509 0 0 0 4.05213 -16.6822 17.5107 -13.9591 -17.2115 -9.60136 55.4689 -27.7299 6.08993 0 0 0 -19.9751 -15.8708 -14.5016 15.5077 -26.6304 21.1592 -48.8276 -29.943 9.47569 0 0 0 1.91759 5.03652 -23.9658 
9.4422 1.1778 -56.9649 -2.5989 2.22304 -43.9111 25.0854 -9.83995 17.9128 -2.75543 28.599 4.34086 -11.6181 -15.8608 1.12067 -23.4533 -17.5708 -18.2673 10.7104 21.2599 -2.86341 10.5289 -1.51278 9.9571 7.24817 21.0914 -8.27721 0 0 0 4.15472 -16.6768 17.5506 -13.9597 -17.188 -9.67244 55.372 -27.7208 6.05458 0 0 0 -20.0279 -15.9189 -14.5018 15.5241 -26.6348 21.1253 -48.7801 -29.9602 9.53329 0 0 0 1.90625 5.02371 -23.8973 
9.4197 1.1853 -56.9599 -2.57836 2.27426 -43.9429 25.1016 -9.87659 17.8255 -2.75095 28.4641 4.29489 -11.5487 -15.8078 1.3377 -23.3917 -17.5988 -18.2528 10.7022 21.2301 -2.84599 10.4762 -1.43827 9.92216 7.2668 21.1094 -8.29218 0 0 0 4.25057 -16.6618 17.5582 -13.9607 -17.1551 -9.71493 55.2392 -27.7416 5.99771 0 0 0 -20.0561 -15.9718 -14.4904 15.5106 -26.6323 21.1243 -48.7475 -29.9443 9.52642 0 0 0 1.8939 5.00428 -23.7975 
9.3996 1.1878 -56.9498 -2.55719 2.3143 -43.9966 25.0995 -9.88853 17.7779 -2.73116 28.3455 4.24528 -11.4901 -15.7776 1.52029 -23.3256 -17.6419 -18.2244 10.6732 21.2058 -2.83308 10.4223 -1.28119 9.8877 7.2752 21.1303 -8.26705 0 0 0 4.32568 -16.6547 17.4953 -13.9634 -17.1063 -9.74022 55.1321 -27.7431 5.97607 0 0 0 -20.0457 -16.0323 -14.4967 15.4482 -26.5755 21.121 -48.7304 -29.9352 9.46858 0 0 0 1.91161 5.00056 -23.7055 
9.382 1.1903 -56.9348 -2.53242 2.35227 -44.0479 25.0857 -9.87634 17.809 -2.69796 28.247 4.19125 -11.4653 -15.7549 1.61343 -23.2857 -17.6957 -18.1986 10.6481 21.1996 -2.80077 10.3709 -1.10089 9.83343 7.2836 21.1336 -8.25467 0 0 0 4.35846 -16.6225 17.3911 -13.9649 -17.0527 -9.78306 55.0385 -27.7385 5.97299 0 0 0 -19.9891 -16.084 -14.4489 15.3794 -26.5186 21.0611 -48.7237 -29.9106 9.43333 0 0 0 1.91915 5.03812 -23.6035 
9.3744 1.1979 -56.9072 -2.51067 2.40084 -44.1103 25.0554 -9.83309 17.8512 -2.65634 28.1726 4.1469 -11.463 -15.7762 1.66556 -23.241 -17.7694 -18.152 10.6215 21.1974 -2.79172 10.283 -0.886114 9.78778 7.30011 21.1273 -8.23521 0 0 0 4.37694 -16.5705 17.2494 -13.9819 -17.0012 -9.81237 54.937 -27.728 5.98486 0 0 0 -19.9017 -16.1123 -14.4491 15.3032 -26.4457 21.0414 -48.7286 -29.8513 9.35571 0 0 0 1.90987 5.10795 -23.5039 
